<?xml version="1.0" standalone="no"?>
<!DOCTYPE svg PUBLIC "-//W3C//DTD SVG 20010904//EN"
 "http://www.w3.org/TR/2001/REC-SVG-20010904/DTD/svg10.dtd">
<svg version="1.0" xmlns="http://www.w3.org/2000/svg"
 width="700.000000pt" height="700.000000pt" viewBox="0 0 700.000000 700.000000"
 preserveAspectRatio="xMidYMid meet">
<metadata>
Created by potrace 1.14, written by Peter Selinger 2001-2017
</metadata>
<g transform="translate(0.000000,700.000000) scale(0.100000,-0.100000)"
fill="#000000" stroke="none">
<path d="M5607 5764 c-1 -1 -23 -5 -48 -8 -232 -31 -450 -154 -551 -311 -118
-182 -109 -451 22 -645 83 -123 232 -224 405 -276 70 -21 58 -18 115 -28 25
-5 54 -10 65 -13 49 -11 283 -9 363 3 216 34 422 126 536 240 166 166 207 391
112 606 -117 265 -489 445 -904 437 -62 -2 -113 -4 -115 -5z"/>
<path d="M2775 5546 c-115 -29 -194 -82 -277 -184 -30 -38 -76 -136 -94 -203
-17 -65 -24 -249 -12 -319 15 -84 29 -157 63 -335 20 -104 39 -201 41 -215 11
-56 63 -309 70 -334 6 -26 6 -26 -57 -27 -177 -3 -619 -26 -869 -46 -143 -11
-153 -10 -156 12 -4 29 -23 136 -29 165 -3 14 -8 41 -11 60 -14 89 -65 311
-83 362 -37 108 -93 200 -166 273 -109 110 -220 157 -350 149 -211 -13 -381
-156 -461 -389 -25 -73 -27 -93 -28 -235 0 -85 3 -198 7 -250 4 -52 9 -145 13
-206 l6 -110 -59 -36 c-212 -131 -288 -367 -185 -578 38 -79 140 -176 235
-224 70 -36 77 -42 78 -70 0 -17 2 -40 4 -51 2 -11 7 -47 10 -80 9 -87 15
-135 20 -177 3 -21 7 -57 10 -80 9 -70 17 -125 34 -238 6 -36 13 -83 16 -105
9 -57 19 -118 36 -205 61 -321 248 -527 495 -543 236 -16 462 168 531 433 18
72 22 344 9 775 l-7 230 218 1 c227 1 751 13 838 19 28 2 86 4 130 6 l79 2 47
-144 c59 -181 217 -630 239 -674 5 -11 28 -69 51 -130 93 -250 162 -355 292
-444 211 -144 495 -70 633 166 25 42 59 129 68 174 18 89 21 122 20 184 -1 94
-1 93 -80 535 -8 47 -30 162 -49 255 -19 94 -31 173 -27 176 4 3 39 11 77 18
214 36 399 151 477 296 37 70 43 96 43 210 0 95 -2 104 -37 175 -66 137 -176
222 -363 280 -62 20 -104 29 -165 35 -30 3 -254 18 -286 18 -6 0 -19 25 -28
56 -9 31 -40 128 -68 216 -29 88 -52 162 -53 165 -1 3 -4 12 -8 20 -3 8 -15
44 -28 80 -70 207 -239 625 -305 753 -129 252 -345 384 -549 333z"/>
<path d="M5371 4065 c-51 -15 -103 -39 -127 -60 -6 -5 -21 -17 -34 -25 -31
-21 -107 -125 -140 -191 -30 -58 -75 -204 -85 -274 -5 -38 -9 -65 -20 -130
-26 -161 -26 -624 0 -825 3 -19 7 -53 10 -75 2 -22 7 -57 10 -77 3 -21 7 -55
10 -75 21 -147 83 -477 115 -605 49 -199 137 -345 256 -428 117 -82 277 -92
419 -26 151 70 265 223 302 406 4 19 14 151 29 370 3 47 7 108 9 135 24 310
24 1038 0 1329 -22 258 -221 474 -510 553 -50 13 -192 12 -244 -2z"/>
</g>
</svg>
